<svg xmlns="http://www.w3.org/2000/svg" width="250" height="215.7" class="float-left mr-2" viewBox="0 0 1105 798">
  <path fill="#3f3d56" d="M959 389h10v388h-10z"/>
  <path fill="#3f3d56" d="M1060 438c0 136-95 246-95 246s-97-109-97-245 94-246 94-246 97 109 98 245zM767 571h5v200h-5z"/>
  <path fill="#3f3d56" d="M819 597c0 69-49 126-49 126s-50-56-50-126 49-127 49-127 50 57 50 127z"/>
  <ellipse cx="872" cy="776.5" fill="#3f3d56" rx="137" ry="21"/>
  <path fill="#2f2e41" d="M883 287c-11-20-34-20-34-20s-23-3-37 27c-13 27-32 54-3 61l5-16 3 17a113 113 0 0 0 13 0c31-1 60 1 59-11-1-14 5-39-6-58z"/>
  <path fill="#fbbebe" d="M841 324s15 21 6 38 21 35 21 35l22-48s-26-17-19-33z"/>
  <circle cx="851.5" cy="307" r="26" fill="#fbbebe"/>
  <path fill="#fbbebe" d="m761 337 22-28s8-29 19-28-4 35-4 35l-22 31zm110 373 7 37 15 4-4-44-18 3zm151-40 27 37 11 5 9-15-27-35-20 8z"/>
  <path fill="#575a89" d="m865 381-16-22s-33 6-36 9 8 58 8 58 2 15 11 23l9 6 74-15 3-33a86 86 0 0 0-23-66l-12 2z"/>
  <path fill="#575a89" d="m817 370-5-2-23-2s-8-2-6-6 4-5 0-6-5-2-4-5 7-9 7-9l-17-14-2 2c-8 7-35 31-16 56 23 29 50 46 72 40z"/>
  <path fill="#2f2e41" d="M839 450v14s-9 17-6 33l4 24a137 137 0 0 0 7 40c7 20-16 151 13 153s45 4 54-6-15-182-15-182 82 171 99 164 60-23 55-32L919 449l-4-9zm48 290s-16-1-16 4-8 22-8 22-6 20 10 18 26-20 26-20l-4-19zm167-35s-14-9-13-3 2 22 9 23 28 7 29 9 25 10 25-3-15-23-15-23l-17-13s-11-1-13 6-5 4-5 4z"/>
  <circle cx="851.5" cy="266.7" r="16.6" fill="#2f2e41"/>
  <path fill="#2f2e41" d="M833 262a17 17 0 0 1 15-16 17 17 0 0 0-2 0 17 17 0 1 0 0 33 17 17 0 0 0 2 0 17 17 0 0 1-15-17z"/>
  <path fill="#2f2e41" d="m878 285-23-12-31 5-6 29 16-1 4-10v10h8l4-17 3 18 26-1-1-21z"/>
  <path fill="#fbbebe" d="m877 452-35 1s-30 6-28-6 30-8 30-8l32-5z"/>
  <path fill="#575a89" d="M904 339a7 7 0 0 1 9 5c7 22 28 94 7 104-25 12-43 11-43 11l-10-23 9-9 9-60 5-25z"/>
  <path d="m898 380-4 40-35 15 39-9v-46z" opacity=".4"/>
  <path fill="#3f3d56" d="M709 247a47 47 0 0 1 28 20l3 5v1l57 16a4 4 0 0 1 3 6l-4 16a4 4 0 0 1-5 3l-58-16-6 2a52 52 0 0 1-33 1z"/>
  <ellipse cx="811.1" cy="344.2" fill="#575a89" rx="3.5" ry="6.6" transform="rotate(-74 753 350)"/>
  <circle cx="766.7" cy="294.1" r="2.4" fill="#3f3d56"/>
  <ellipse cx="749.7" cy="325.7" fill="#ffba00" rx="28.1" ry="12.7" transform="rotate(-72 691 333)"/>
  <path d="M712 278c5-14 4-28-2-30a6 6 0 0 1 1 0c6 2 8 16 3 30s-14 25-21 23c6 1 15-9 19-23z" opacity=".4"/>
  <path fill="#ffba00" d="M710 248 580 146a862 862 0 0 1-66-57c-38-35-88-64-147-79A261 261 0 0 0 60 134C-18 280-78 516 270 390c76-27 153-30 211-45l212-43z"/>
  <circle cx="319" cy="70.5" r="7" fill="#f2f2f2"/>
  <path fill="#f2f2f2" d="M455 87h-2v-2 2h-2 2v2-2h2zm183 152h-2v-2 2h-2 2v2-2h2zm-13 47h-2v-2 2h-2 2v2-2h2zM66 326h-2v-2 2h-2 2v2-2h2zm80-218h-2v-2 2h-2 2v2-2h2zm311 186h-2v-2 2h-2 2v2-2h2zM266 44h-2v-2 2h-2 2v2-2h2z"/>
  <path fill="#e6e6e6" d="M267 188h-3l2 14h2l-1-14zm-7-28-2 1 4 13h2l-4-14zm-9-26-3 1 6 13 2-1-5-13zm-14-24-2 1 7 12 2-1c-2-4-4-9-7-12zm-17-23-1 1 8 11 2-1-9-11zm-19-20-2 2 10 9 2-1-10-10zm-22-17-2 2 12 8 1-2-11-8zm-20-12v2l7 4 1-2-8-4zm108 178h2v7h-2v-7zM132 385h-3l2 14h2l-1-14zm-7-28-2 1 4 13h2l-4-14zm-9-26-3 1 6 13 2-1-5-13zm-14-24-2 1 7 12 2-1c-2-4-4-9-7-12zm-17-23-1 1 8 11 2-1-9-11zm-19-20-2 2 10 9 2-1-10-10zm-22-17-2 2 12 8 1-2-11-8zm-20-12v2l7 4 1-2-8-4zm108 178h2v7h-2v-7zm462-127h-3l2 14h2l-1-14zm-7-28-2 1 4 13h2l-4-14zm-9-26-3 1 6 13 2-1-5-13zm-14-24-2 1 7 12 2-1c-2-4-4-9-7-12zm-17-23-1 1 8 11 2-1-9-11zm-19-20-2 2 10 9 2-1-10-10zm-22-17-2 2 12 8 1-2-11-8zm-20-12v2l7 4 1-2-8-4zm108 178h2v7h-2v-7z"/>
  <path fill="#f2f2f2" d="M149 200h-1v-2h-1v2h-1 1v2h1v-2h1zm-19 102h-2v-1 1h-2v1h2v1-1h2v-1zm-58 90h-1v-2h-1v2h-1 1v2h1v-2h1z"/>
  <path fill="#3f3d56" d="M232 278a123 123 0 1 1 57 46 40 40 0 1 1-57-46z"/>
  <path fill="#ffba00" d="M333 139c28 0 48 16 48 39 0 14-8 25-21 33-14 7-18 13-18 23a6 6 0 0 1-6 6h-14a6 6 0 0 1-6-6v-1c-1-15 4-25 18-33 12-8 18-12 18-22s-9-16-21-16c-8 0-15 4-18 11a13 13 0 0 1-12 8c-10 0-16-11-12-19 7-14 23-23 44-23zm-20 129c0-9 8-15 16-15 9 0 17 6 17 15s-8 16-17 16-16-7-16-16z"/>
</svg>
