<svg xmlns="http://www.w3.org/2000/svg" fill="none" stroke="#c0871f" stroke-width="1.5" viewBox="0 0 24 24">
  <path stroke-linecap="round" stroke-linejoin="round" d="M6.63 10.5c.8 0 1.54-.45 2.03-1.08a9.04 9.04 0 0 1 2.86-2.4 3.47 3.47 0 0 0 1.66-1.72 4.5 4.5 0 0 0 .32-1.67V3a.75.75 0 0 1 .75-.75A2.25 2.25 0 0 1 16.5 4.5c0 1.15-.26 2.24-.72 3.22-.27.56.1 1.28.72 1.28h3.13c1.02 0 1.94.7 2.05 1.72.05.42.07.84.07 1.28a11.95 11.95 0 0 1-2.65 7.52c-.39.48-.99.73-1.6.73h-4.02c-.48 0-.96-.08-1.42-.23l-3.12-1.04a4.5 4.5 0 0 0-1.42-.23H5.9M14.25 9h2.25M5.9 18.75l.27.6c.2.4-.07.9-.52.9h-.9c-.9 0-1.72-.52-1.98-1.37a12 12 0 0 1-.52-3.5c0-1.56.3-3.04.83-4.4A2.02 2.02 0 0 1 5 9.75h1.05c.48 0 .75.56.5.96a8.96 8.96 0 0 0-1.3 4.67c0 1.19.23 2.33.65 3.37z"/>
</svg>
